Simulation
nRows=32
nColumns=15
endheader
time  TH_x TH_y TH_z SC_y  SC_z  SC_x  AC_y  AC_z  AC_x  GH_y  GH_z  GH_yy  EL_x  PS_y
5.745  0.000000  0.000000  0.000000  -51.42393957970093  16.96286233023733  15.813955113265235  46.85065818670116  12.544267983797232  12.92378880504716  34.70456683487233  56.29966681591878  -44.343333119901715  18.580315582815313  120.000000
5.80245  0.000000  0.000000  0.000000  -50.194115921240254  16.3372585708644  13.33304791947264  46.363648325507164  12.143101776988717  11.957250186591383  35.72242379456562  55.397929123826664  -44.8884808813017  18.87295706585294  120.000000
5.8599  0.000000  0.000000  0.000000  -48.74153332583985  15.534146878070013  10.295164416715613  45.74223471630753  11.669748204817258  11.028696979645153  36.84192847809716  54.07821927815167  -45.23973621426616  19.265707687140353  120.000000
5.91735  0.000000  0.000000  0.000000  -47.10566323061429  14.516023972705952  6.830414353507207  44.97488910612448  11.187034723810665  10.211735078601546  37.955003227846085  52.309576018205306  -45.32512165541043  19.66960013973394  120.000000
5.9748  0.000000  0.000000  0.000000  -45.328729127616334  13.270300520956049  3.09655866733383  44.062212581672526  10.787666068760817  9.5633247749901  38.97269261944952  50.071857217558126  -45.11766930489961  19.97619030792381  120.000000
6.03225  0.000000  0.000000  0.000000  -43.45619565453307  11.814157781322432  -0.7350277758462939  43.03258955280677  10.577346583083592  9.119182404111095  39.83934609108514  47.367424653234146  -44.64661602279107  20.09079982793594  120.000000
6.089700000000001  0.000000  0.000000  0.000000  -41.5407646715467  10.192233245750135  -4.494267949488555  41.94564490807598  10.651629280853962  8.897354958066966  40.54744830042903  44.23363917679875  -43.99554956901557  19.960584050754765  120.000000
6.14715  0.000000  0.000000  0.000000  -39.6495717818114  8.470531591842986  -8.02906295235887  40.88195074535112  11.071668805153195  8.9042766561075  41.14926776815846  40.75421607301838  -43.29021750991046  19.584285947958477  120.000000
6.2046  0.000000  0.000000  0.000000  -37.86720401087962  6.735404776986215  -11.22587426088118  39.93169178804699  11.847608255942363  9.131456534880277  41.76437385229611  37.061616933268915  -42.68670112866697  19.00011705182756  120.000000
6.26205  0.000000  0.000000  0.000000  -36.2916515667341  5.083521328777871  -14.018742169610322  39.16802162627344  12.931783280936829  9.55736897415379  42.57773797464066  33.31860357351914  -42.35933107052966  18.269106181779243  120.000000
6.3195  0.000000  0.000000  0.000000  -35.01633528309962  3.6079536206017107  -16.38529793332833  38.62615900813756  14.230799026068402  10.14973366024426  43.821025773483164  29.688622121440314  -42.485988840363895  17.465921105251073  120.000000
6.37695  0.000000  0.000000  0.000000  -34.10030774720695  2.3870335524163666  -18.3341786047044  38.30774842996401  15.631707723867029  10.865528348371678  45.74126578745535  26.309629468921628  -43.233104489761836  16.674310145504172  120.000000
6.4344  0.000000  0.000000  0.000000  -33.55153703706072  1.4673668913691484  -19.887374885038547  38.18782135294292  17.025392414014085  11.659337925437649  48.55627131215238  23.279392806092183  -44.73654009521694  15.979815656207437  120.000000
6.49185  0.000000  0.000000  0.000000  -33.32965391778265  0.8564212238330717  -21.071159621987785  38.22474229412485  18.324766785440133  12.486188678464867  52.39941427101523  20.653870863935648  -47.07536385869465  15.456792288540829  120.000000
6.549300000000001  0.000000  0.000000  0.000000  -33.36385787954411  0.5298278926615998  -21.915273559008256  38.371340207007066  19.472891998901236  13.30094964210991  57.27433076554453  18.45444748675925  -50.247743836034324  15.153947298464987  120.000000
6.60675  0.000000  0.000000  0.000000  -33.57214669893487  0.44109402954426363  -22.45527002356379  38.584716519202836  20.443325007857595  14.057865470857106  63.03466599206531  16.677730736798164  -54.15608855254586  15.085680081882767  120.000000
6.6642  0.000000  0.000000  0.000000  -33.8759370953152  0.5306257705726689  -22.731768646167815  38.82502701234004  21.23261937856829  14.716386071403258  69.39134234608218  15.294268292839487  -58.60014354547637  15.235006603762308  120.000000
6.72165  0.000000  0.000000  0.000000  -34.21538064640274  0.7369929194409323  -22.789470965852374  39.05510178876721  21.84845073746808  15.248804851914004  75.96981379714883  14.248947739521306  -63.30755340695357  15.562917905879004  120.000000
6.7791  0.000000  0.000000  0.000000  -34.5495661690356  1.0023452026329511  -22.676054520376898  39.24989403362827  22.303592722944906  15.638022853223818  82.40087940398533  13.472180202127344  -67.99517703027159  16.011725422900938  120.000000
6.83655  0.000000  0.000000  0.000000  -34.852690574312234  1.280035336138355  -22.43662816038832  39.40116487399025  22.61029835459276  15.87696412745147  88.40671218764534  12.895240914017526  -72.43628632284836  16.50583053912467  120.000000
6.894  0.000000  0.000000  0.000000  -35.10895669662946  1.5394743106870392  -22.108734367470685  39.51569145551692  22.780243709768666  15.96863227025362  93.83450959574436  12.458869329320365  -76.49505397837572  16.95896377777802  120.000000
6.95145  0.000000  0.000000  0.000000  -35.30505044488605  1.763029161745993  -21.720572444551124  39.60983591424432  22.828168883919233  15.923625477482496  98.63849412627224  12.11525508557894  -80.12142035498053  17.291504337205108  120.000000
7.008900000000001  0.000000  0.000000  0.000000  -35.43461687335131  1.942070788857631  -21.29033418708414  39.69988295989378  22.771583072177595  15.759704675459796  102.84269203017028  11.829470650195136  -83.32993228508587  17.457187505205322  120.000000
7.06635  0.000000  0.000000  0.000000  -35.50550980079545  2.073651635364371  -20.827079237550638  39.79292288385711  22.628855157366267  15.500621998852726  106.50067145552602  11.577604650958138  -86.17125815304134  17.46470926996445  120.000000
7.1238  0.000000  0.000000  0.000000  -35.53843460834707  2.1599324581993975  -20.33386932283523  39.88692870670359  22.41895961752493  15.170612824804396  109.66974571057109  11.343941666435976  -88.70952974624582  17.374718166489888  120.000000
7.18125  0.000000  0.000000  0.000000  -35.55690094673009  2.209612000048973  -19.81182690780341  39.981806593278115  22.16329456919007  14.786368684071704  112.38925008825755  11.121479953700948  -90.99546979426485  17.27255921844426  120.000000
7.2387  0.000000  0.000000  0.000000  -35.57930103505045  2.2363467279704663  -19.261767320528822  40.084258178289716  21.882061383311466  14.358220982788952  114.67602243891236  10.909669525621508  -93.05122811861486  17.233420687160176  120.000000
7.29615  0.000000  0.000000  0.000000  -35.615815350145475  2.2510749065719247  -18.68374054023045  40.19991373755499  21.586535148369933  13.899354797806717  116.55034702258584  10.705225483725574  -94.88503595797727  17.294228424442856  120.000000
7.3536  0.000000  0.000000  0.000000  -35.66736521921093  2.259871008096193  -18.07786105068617  40.330176278687794  21.278190343186306  13.427942572101326  118.05543710778848  10.499011751951807  -96.50852106473367  17.448098953195085  120.000000
7.41105  0.000000  0.000000  0.000000  -35.726013496541924  2.2680846948450073  -17.447192474789016  40.47896751920658  20.955453786663774  12.958997596602705  119.2425523046049  10.281174139265412  -97.93029307422033  17.661456507354583  120.000000
7.468500000000001  0.000000  0.000000  0.000000  -35.77854004163699  2.281393662648606  -16.799066465470375  40.65357184539866  20.617731947519705  12.499502321705059  120.16168992280674  10.044003686184219  -99.15765593063354  17.896510161073447  120.000000
7.52595  0.000000  0.000000  0.000000  -35.815092872538195  2.303269210526105  -16.142981994852803  40.85691476746501  20.264219270375357  12.052040867993293  120.86526428806786  9.782273161525543  -100.20916842608464  18.126956333533354  120.000000
